<?xml version="1.0" encoding="UTF-8" standalone="no"?><!DOCTYPE svg PUBLIC "-//W3C//DTD SVG 1.1//EN" "http://www.w3.org/Graphics/SVG/1.1/DTD/svg11.dtd"><svg width="100%" height="100%" viewBox="0 0 2250 2250" version="1.1" xmlns="http://www.w3.org/2000/svg" xmlns:xlink="http://www.w3.org/1999/xlink" xml:space="preserve" xmlns:serif="http://www.serif.com/" style="fill-rule:evenodd;clip-rule:evenodd;stroke-miterlimit:1.5;"><path d="M1899.92,130.176l-1575.17,1575.17" style="fill:none;stroke:#000;stroke-width:50px;"/><path d="M324.747,130.176l1575.17,1575.17" style="fill:none;stroke:#000;stroke-width:50px;stroke-linecap:round;"/><path d="M1899.92,130.176l-1575.17,-0l0,1575.17l1575.17,0" style="fill:none;stroke:#000;stroke-width:50px;stroke-linecap:round;"/><path d="M324.747,917.76l1575.17,0l-0,-787.584" style="fill:none;stroke:#000;stroke-width:50px;stroke-linecap:square;"/><path d="M811.102,1909.51l-210.311,-0l-0,210.311l210.311,0" style="fill:none;stroke:#000;stroke-width:20.83px;stroke-linecap:round;"/><path d="M600.791,2014.67l210.311,-0" style="fill:none;stroke:#000;stroke-width:20.83px;stroke-linecap:square;"/><path d="M1925.38,1909.51l-210.312,210.311" style="fill:none;stroke:#000;stroke-width:20.83px;"/><path d="M1715.07,1909.51l104.36,104.36" style="fill:none;stroke:#000;stroke-width:20.83px;stroke-linecap:round;"/><path d="M1438.87,1909.51l0,210.311l210.312,0" style="fill:none;stroke:#000;stroke-width:20.83px;stroke-linecap:round;"/><path d="M1168.27,1909.51l0,210.311" style="fill:none;stroke:#000;stroke-width:20.83px;stroke-linecap:round;"/><path d="M1168.27,2014.67l210.312,-0" style="fill:none;stroke:#000;stroke-width:20.83px;stroke-linecap:square;"/><path d="M884.713,1909.51l210.311,210.311" style="fill:none;stroke:#000;stroke-width:20.83px;stroke-linecap:round;"/><path d="M884.713,1909.51l-0,210.311" style="fill:none;stroke:#000;stroke-width:20.83px;stroke-linecap:round;"/><path d="M1095.02,2014.67l0,-105.156" style="fill:none;stroke:#000;stroke-width:20.83px;stroke-linecap:square;"/><path d="M306.673,1909.51l210.311,210.311" style="fill:none;stroke:#000;stroke-width:20.83px;stroke-linecap:round;"/><path d="M516.984,1909.51l-210.311,-0l-0,210.311" style="fill:none;stroke:#000;stroke-width:20.83px;stroke-linecap:round;"/><path d="M306.673,2014.67l210.311,-0l-0,-105.156" style="fill:none;stroke:#000;stroke-width:20.83px;stroke-linecap:square;"/><circle cx="1925.38" cy="2101.88" r="17.943"/><circle cx="1903.11" cy="1287.12" r="40.218"/></svg>