<?xml version="1.0" encoding="UTF-8" standalone="no"?><!DOCTYPE svg PUBLIC "-//W3C//DTD SVG 1.1//EN" "http://www.w3.org/Graphics/SVG/1.1/DTD/svg11.dtd"><svg width="100%" height="100%" viewBox="0 0 2250 2250" version="1.1" xmlns="http://www.w3.org/2000/svg" xmlns:xlink="http://www.w3.org/1999/xlink" xml:space="preserve" xmlns:serif="http://www.serif.com/" style="fill-rule:evenodd;clip-rule:evenodd;stroke-miterlimit:1.5;"><path d="M2008.87,44.207l-1788.2,1788.2" style="fill:none;stroke:#000;stroke-width:50px;"/><path d="M220.672,44.207l1788.2,1788.2" style="fill:none;stroke:#000;stroke-width:50px;stroke-linecap:round;"/><path d="M2008.87,44.207l-1788.2,-0l-0,1788.2l1788.2,-0" style="fill:none;stroke:#000;stroke-width:50px;stroke-linecap:round;"/><path d="M220.672,938.305l1788.2,-0l-0,-894.098" style="fill:none;stroke:#000;stroke-width:50px;stroke-linecap:square;"/><path d="M767.058,1965.97l-239.821,0l-0,239.821l239.821,0" style="fill:none;stroke:#000;stroke-width:20.83px;stroke-linecap:round;"/><path d="M527.237,2085.88l239.821,-0" style="fill:none;stroke:#000;stroke-width:20.83px;stroke-linecap:square;"/><path d="M2037.69,1965.97l-239.821,239.821" style="fill:none;stroke:#000;stroke-width:20.83px;"/><path d="M1797.87,1965.97l119.003,119.003" style="fill:none;stroke:#000;stroke-width:20.83px;stroke-linecap:round;"/><path d="M1482.91,1965.97l0,239.821l239.821,0" style="fill:none;stroke:#000;stroke-width:20.83px;stroke-linecap:round;"/><path d="M1174.34,1965.97l-0,239.821" style="fill:none;stroke:#000;stroke-width:20.83px;stroke-linecap:round;"/><path d="M1174.34,2085.88l239.821,-0" style="fill:none;stroke:#000;stroke-width:20.83px;stroke-linecap:square;"/><path d="M850.997,1965.97l239.821,239.821" style="fill:none;stroke:#000;stroke-width:20.83px;stroke-linecap:round;"/><path d="M850.997,1965.97l0,239.821" style="fill:none;stroke:#000;stroke-width:20.83px;stroke-linecap:round;"/><path d="M1090.82,2085.88l0,-119.911" style="fill:none;stroke:#000;stroke-width:20.83px;stroke-linecap:square;"/><path d="M191.85,1965.97l239.821,239.821" style="fill:none;stroke:#000;stroke-width:20.83px;stroke-linecap:round;"/><path d="M431.671,1965.97l-239.821,0l-0,239.821" style="fill:none;stroke:#000;stroke-width:20.83px;stroke-linecap:round;"/><path d="M191.85,2085.88l239.821,-0l-0,-119.911" style="fill:none;stroke:#000;stroke-width:20.83px;stroke-linecap:square;"/><circle cx="2037.69" cy="2185.33" r="20.46"/><circle cx="2012.49" cy="1357.62" r="45.657"/></svg>